<svg xmlns="http://www.w3.org/2000/svg" viewBox="0 0 24 20" shape-rendering="crispEdges"><rect x="2" y="2" width="1" height="1" fill="#00ffff"/><rect x="3" y="2" width="1" height="1" fill="#00ffff"/><rect x="4" y="2" width="1" height="1" fill="#00ffff"/><rect x="5" y="2" width="1" height="1" fill="#00ffff"/><rect x="6" y="2" width="1" height="1" fill="#00ffff"/><rect x="7" y="2" width="1" height="1" fill="#00ffff"/><rect x="8" y="2" width="1" height="1" fill="#00ffff"/><rect x="9" y="2" width="1" height="1" fill="#00ffff"/><rect x="10" y="2" width="1" height="1" fill="#00ffff"/><rect x="11" y="2" width="1" height="1" fill="#00ffff"/><rect x="12" y="2" width="1" height="1" fill="#00ffff"/><rect x="13" y="2" width="1" height="1" fill="#00ffff"/><rect x="14" y="2" width="1" height="1" fill="#00ffff"/><rect x="15" y="2" width="1" height="1" fill="#00ffff"/><rect x="16" y="2" width="1" height="1" fill="#00ffff"/><rect x="17" y="2" width="1" height="1" fill="#00ffff"/><rect x="18" y="2" width="1" height="1" fill="#00ffff"/><rect x="19" y="2" width="1" height="1" fill="#00ffff"/><rect x="20" y="2" width="1" height="1" fill="#00ffff"/><rect x="21" y="2" width="1" height="1" fill="#00ffff"/><rect x="2" y="3" width="1" height="1" fill="#00ffff"/><rect x="3" y="3" width="1" height="1" fill="#00ffff"/><rect x="4" y="3" width="1" height="1" fill="#00ffff"/><rect x="5" y="3" width="1" height="1" fill="#00ffff"/><rect x="6" y="3" width="1" height="1" fill="#00ffff"/><rect x="7" y="3" width="1" height="1" fill="#00ffff"/><rect x="8" y="3" width="1" height="1" fill="#00ffff"/><rect x="9" y="3" width="1" height="1" fill="#00ffff"/><rect x="10" y="3" width="1" height="1" fill="#00ffff"/><rect x="11" y="3" width="1" height="1" fill="#00ffff"/><rect x="12" y="3" width="1" height="1" fill="#00ffff"/><rect x="13" y="3" width="1" height="1" fill="#00ffff"/><rect x="14" y="3" width="1" height="1" fill="#00ffff"/><rect x="15" y="3" width="1" height="1" fill="#00ffff"/><rect x="16" y="3" width="1" height="1" fill="#00ffff"/><rect x="17" y="3" width="1" height="1" fill="#00ffff"/><rect x="18" y="3" width="1" height="1" fill="#00ffff"/><rect x="19" y="3" width="1" height="1" fill="#00ffff"/><rect x="20" y="3" width="1" height="1" fill="#00ffff"/><rect x="21" y="3" width="1" height="1" fill="#00ffff"/><rect x="2" y="4" width="1" height="1" fill="#00ffff"/><rect x="3" y="4" width="1" height="1" fill="#00ffff"/><rect x="20" y="4" width="1" height="1" fill="#00ffff"/><rect x="21" y="4" width="1" height="1" fill="#00ffff"/><rect x="2" y="5" width="1" height="1" fill="#00ffff"/><rect x="3" y="5" width="1" height="1" fill="#00ffff"/><rect x="20" y="5" width="1" height="1" fill="#00ffff"/><rect x="21" y="5" width="1" height="1" fill="#00ffff"/><rect x="2" y="6" width="1" height="1" fill="#00ffff"/><rect x="3" y="6" width="1" height="1" fill="#00ffff"/><rect x="20" y="6" width="1" height="1" fill="#00ffff"/><rect x="21" y="6" width="1" height="1" fill="#00ffff"/><rect x="2" y="7" width="1" height="1" fill="#00ffff"/><rect x="3" y="7" width="1" height="1" fill="#00ffff"/><rect x="20" y="7" width="1" height="1" fill="#00ffff"/><rect x="21" y="7" width="1" height="1" fill="#00ffff"/><rect x="2" y="8" width="1" height="1" fill="#00ffff"/><rect x="3" y="8" width="1" height="1" fill="#00ffff"/><rect x="20" y="8" width="1" height="1" fill="#00ffff"/><rect x="21" y="8" width="1" height="1" fill="#00ffff"/><rect x="2" y="9" width="1" height="1" fill="#00ffff"/><rect x="3" y="9" width="1" height="1" fill="#00ffff"/><rect x="20" y="9" width="1" height="1" fill="#00ffff"/><rect x="21" y="9" width="1" height="1" fill="#00ffff"/><rect x="2" y="10" width="1" height="1" fill="#00ffff"/><rect x="3" y="10" width="1" height="1" fill="#00ffff"/><rect x="20" y="10" width="1" height="1" fill="#00ffff"/><rect x="21" y="10" width="1" height="1" fill="#00ffff"/><rect x="2" y="11" width="1" height="1" fill="#00ffff"/><rect x="3" y="11" width="1" height="1" fill="#00ffff"/><rect x="20" y="11" width="1" height="1" fill="#00ffff"/><rect x="21" y="11" width="1" height="1" fill="#00ffff"/><rect x="2" y="12" width="1" height="1" fill="#00ffff"/><rect x="3" y="12" width="1" height="1" fill="#00ffff"/><rect x="20" y="12" width="1" height="1" fill="#00ffff"/><rect x="21" y="12" width="1" height="1" fill="#00ffff"/><rect x="2" y="13" width="1" height="1" fill="#00ffff"/><rect x="3" y="13" width="1" height="1" fill="#00ffff"/><rect x="4" y="13" width="1" height="1" fill="#00ffff"/><rect x="5" y="13" width="1" height="1" fill="#00ffff"/><rect x="6" y="13" width="1" height="1" fill="#00ffff"/><rect x="7" y="13" width="1" height="1" fill="#00ffff"/><rect x="8" y="13" width="1" height="1" fill="#00ffff"/><rect x="9" y="13" width="1" height="1" fill="#00ffff"/><rect x="10" y="13" width="1" height="1" fill="#00ffff"/><rect x="11" y="13" width="1" height="1" fill="#00ffff"/><rect x="12" y="13" width="1" height="1" fill="#00ffff"/><rect x="13" y="13" width="1" height="1" fill="#00ffff"/><rect x="14" y="13" width="1" height="1" fill="#00ffff"/><rect x="15" y="13" width="1" height="1" fill="#00ffff"/><rect x="16" y="13" width="1" height="1" fill="#00ffff"/><rect x="17" y="13" width="1" height="1" fill="#00ffff"/><rect x="18" y="13" width="1" height="1" fill="#00ffff"/><rect x="19" y="13" width="1" height="1" fill="#00ffff"/><rect x="20" y="13" width="1" height="1" fill="#00ffff"/><rect x="21" y="13" width="1" height="1" fill="#00ffff"/><rect x="2" y="14" width="1" height="1" fill="#00ffff"/><rect x="3" y="14" width="1" height="1" fill="#00ffff"/><rect x="4" y="14" width="1" height="1" fill="#00ffff"/><rect x="5" y="14" width="1" height="1" fill="#00ffff"/><rect x="6" y="14" width="1" height="1" fill="#00ffff"/><rect x="7" y="14" width="1" height="1" fill="#00ffff"/><rect x="8" y="14" width="1" height="1" fill="#00ffff"/><rect x="9" y="14" width="1" height="1" fill="#00ffff"/><rect x="10" y="14" width="1" height="1" fill="#00ffff"/><rect x="11" y="14" width="1" height="1" fill="#00ffff"/><rect x="12" y="14" width="1" height="1" fill="#00ffff"/><rect x="13" y="14" width="1" height="1" fill="#00ffff"/><rect x="14" y="14" width="1" height="1" fill="#00ffff"/><rect x="15" y="14" width="1" height="1" fill="#00ffff"/><rect x="16" y="14" width="1" height="1" fill="#00ffff"/><rect x="17" y="14" width="1" height="1" fill="#00ffff"/><rect x="18" y="14" width="1" height="1" fill="#00ffff"/><rect x="19" y="14" width="1" height="1" fill="#00ffff"/><rect x="20" y="14" width="1" height="1" fill="#00ffff"/><rect x="21" y="14" width="1" height="1" fill="#00ffff"/><rect x="10" y="15" width="1" height="1" fill="#00ffff"/><rect x="11" y="15" width="1" height="1" fill="#00ffff"/><rect x="12" y="15" width="1" height="1" fill="#00ffff"/><rect x="13" y="15" width="1" height="1" fill="#00ffff"/><rect x="10" y="16" width="1" height="1" fill="#00ffff"/><rect x="11" y="16" width="1" height="1" fill="#00ffff"/><rect x="12" y="16" width="1" height="1" fill="#00ffff"/><rect x="13" y="16" width="1" height="1" fill="#00ffff"/><rect x="7" y="17" width="1" height="1" fill="#00ffff"/><rect x="8" y="17" width="1" height="1" fill="#00ffff"/><rect x="9" y="17" width="1" height="1" fill="#00ffff"/><rect x="10" y="17" width="1" height="1" fill="#00ffff"/><rect x="11" y="17" width="1" height="1" fill="#00ffff"/><rect x="12" y="17" width="1" height="1" fill="#00ffff"/><rect x="13" y="17" width="1" height="1" fill="#00ffff"/><rect x="14" y="17" width="1" height="1" fill="#00ffff"/><rect x="15" y="17" width="1" height="1" fill="#00ffff"/><rect x="16" y="17" width="1" height="1" fill="#00ffff"/><rect x="7" y="18" width="1" height="1" fill="#00ffff"/><rect x="8" y="18" width="1" height="1" fill="#00ffff"/><rect x="9" y="18" width="1" height="1" fill="#00ffff"/><rect x="10" y="18" width="1" height="1" fill="#00ffff"/><rect x="11" y="18" width="1" height="1" fill="#00ffff"/><rect x="12" y="18" width="1" height="1" fill="#00ffff"/><rect x="13" y="18" width="1" height="1" fill="#00ffff"/><rect x="14" y="18" width="1" height="1" fill="#00ffff"/><rect x="15" y="18" width="1" height="1" fill="#00ffff"/><rect x="16" y="18" width="1" height="1" fill="#00ffff"/></svg>